<mxfile host="app.diagrams.net" modified="2020-12-23T02:02:14.340Z" agent="5.0 (Macintosh; Intel Mac OS X 11_0_0) AppleWebKit/537.36 (KHTML, like Gecko) Chrome/87.0.4280.88 Safari/537.36" etag="ic9rcYU2X8I9J2Gllpvk" version="14.1.1" type="github">
  <diagram name="Page-1" id="74e2e168-ea6b-b213-b513-2b3c1d86103e">
    <mxGraphModel dx="1906" dy="1005" grid="0" gridSize="10" guides="1" tooltips="1" connect="1" arrows="1" fold="1" page="1" pageScale="1" pageWidth="1100" pageHeight="850" background="#F1FAEE" math="0" shadow="0">
      <root>
        <mxCell id="0" />
        <mxCell id="1" parent="0" />
        <mxCell id="77e6c97f196da883-1" value="购物车流程图" style="swimlane;html=1;childLayout=stackLayout;startSize=20;rounded=1;shadow=0;labelBackgroundColor=none;strokeWidth=1;fontFamily=Verdana;fontSize=8;align=center;fillColor=#A8DADC;strokeColor=#457B9D;fontColor=#1D3557;sketch=0;snapToPoint=0;fixDash=0;metaEdit=0;backgroundOutline=0;comic=0;fillOpacity=93;" parent="1" vertex="1">
          <mxGeometry x="134" y="49" width="1303" height="1535" as="geometry" />
        </mxCell>
        <mxCell id="77e6c97f196da883-2" value="APP" style="swimlane;html=1;startSize=20;fillColor=#A8DADC;strokeColor=#457B9D;fontColor=#1D3557;sketch=0;snapToPoint=0;fixDash=0;metaEdit=0;backgroundOutline=0;comic=0;fillOpacity=93;" parent="77e6c97f196da883-1" vertex="1">
          <mxGeometry y="20" width="325" height="1515" as="geometry" />
        </mxCell>
        <mxCell id="77e6c97f196da883-13" value="登陆" style="rhombus;whiteSpace=wrap;html=1;rounded=0;shadow=0;labelBackgroundColor=none;strokeWidth=1;fontFamily=Verdana;fontSize=8;align=center;fillColor=#A8DADC;strokeColor=#457B9D;fontColor=#1D3557;sketch=0;snapToPoint=0;fixDash=0;metaEdit=0;backgroundOutline=0;comic=0;fillOpacity=93;" parent="77e6c97f196da883-2" vertex="1">
          <mxGeometry x="141" y="126" width="80" height="60" as="geometry" />
        </mxCell>
        <mxCell id="77e6c97f196da883-29" style="edgeStyle=orthogonalEdgeStyle;rounded=1;html=1;labelBackgroundColor=none;startArrow=none;startFill=0;startSize=5;endArrow=classicThin;endFill=1;endSize=5;jettySize=auto;orthogonalLoop=1;strokeWidth=1;fontFamily=Verdana;fontSize=8;strokeColor=#457B9D;fontColor=#1D3557;sketch=0;snapToPoint=0;fixDash=0;metaEdit=0;backgroundOutline=0;comic=0;fillOpacity=93;exitX=1;exitY=0.5;exitDx=0;exitDy=0;" parent="77e6c97f196da883-2" source="TEv4NFGnasqdaG9CAdCf-1" target="77e6c97f196da883-13" edge="1">
          <mxGeometry relative="1" as="geometry">
            <mxPoint x="109" y="70" as="sourcePoint" />
          </mxGeometry>
        </mxCell>
        <mxCell id="LsGQIVAyzrIgrGC21WkT-74" value="判断" style="edgeLabel;html=1;align=center;verticalAlign=middle;resizable=0;points=[];fontColor=#1D3557;labelBackgroundColor=#F1FAEE;" parent="77e6c97f196da883-29" vertex="1" connectable="0">
          <mxGeometry x="-0.0513" y="2" relative="1" as="geometry">
            <mxPoint as="offset" />
          </mxGeometry>
        </mxCell>
        <mxCell id="LsGQIVAyzrIgrGC21WkT-6" value="&lt;span&gt;用户登录&lt;/span&gt;" style="whiteSpace=wrap;html=1;rounded=0;shadow=0;fontFamily=Verdana;fontSize=8;fontColor=#1D3557;strokeColor=#457B9D;strokeWidth=1;fillColor=#A8DADC;sketch=0;snapToPoint=0;fixDash=0;metaEdit=0;backgroundOutline=0;comic=0;fillOpacity=93;" parent="77e6c97f196da883-2" vertex="1">
          <mxGeometry x="121" y="220" width="120" height="60" as="geometry" />
        </mxCell>
        <mxCell id="LsGQIVAyzrIgrGC21WkT-7" value="" style="edgeStyle=orthogonalEdgeStyle;curved=0;rounded=1;sketch=0;orthogonalLoop=1;jettySize=auto;html=1;strokeColor=#457B9D;fillColor=#A8DADC;fontColor=#1D3557;snapToPoint=0;fixDash=0;metaEdit=0;backgroundOutline=0;comic=0;fillOpacity=93;shadow=0;labelBackgroundColor=#F1FAEE;" parent="77e6c97f196da883-2" source="77e6c97f196da883-13" target="LsGQIVAyzrIgrGC21WkT-6" edge="1">
          <mxGeometry relative="1" as="geometry" />
        </mxCell>
        <mxCell id="TEv4NFGnasqdaG9CAdCf-7" style="edgeStyle=orthogonalEdgeStyle;curved=0;rounded=1;sketch=0;orthogonalLoop=1;jettySize=auto;html=1;exitX=0;exitY=0.5;exitDx=0;exitDy=0;entryX=0;entryY=0.5;entryDx=0;entryDy=0;strokeColor=#457B9D;fillColor=#A8DADC;fontColor=#1D3557;" edge="1" parent="77e6c97f196da883-2" source="LsGQIVAyzrIgrGC21WkT-78" target="LsGQIVAyzrIgrGC21WkT-6">
          <mxGeometry relative="1" as="geometry" />
        </mxCell>
        <mxCell id="LsGQIVAyzrIgrGC21WkT-78" value="未登录" style="text;html=1;strokeColor=none;fillColor=none;align=center;verticalAlign=middle;whiteSpace=wrap;rounded=0;shadow=0;sketch=0;fontColor=#1D3557;" parent="77e6c97f196da883-2" vertex="1">
          <mxGeometry x="101" y="146" width="40" height="20" as="geometry" />
        </mxCell>
        <mxCell id="TEv4NFGnasqdaG9CAdCf-1" value="&lt;span style=&quot;color: rgb(29 , 53 , 87) ; font-family: &amp;#34;verdana&amp;#34; ; font-size: 8px&quot;&gt;商详页加购点击确认&lt;/span&gt;" style="ellipse;whiteSpace=wrap;html=1;aspect=fixed;fillColor=#A8DADC;strokeColor=#457B9D;fontColor=#1D3557;" vertex="1" parent="77e6c97f196da883-2">
          <mxGeometry x="24" y="31" width="80" height="80" as="geometry" />
        </mxCell>
        <mxCell id="LsGQIVAyzrIgrGC21WkT-10" value="购物车查询" style="whiteSpace=wrap;html=1;rounded=0;shadow=0;fontFamily=Verdana;fontSize=8;fontColor=#1D3557;strokeColor=#457B9D;strokeWidth=1;fillColor=#A8DADC;sketch=0;snapToPoint=0;fixDash=0;metaEdit=0;backgroundOutline=0;comic=0;fillOpacity=93;" parent="77e6c97f196da883-2" vertex="1">
          <mxGeometry x="121" y="697" width="120" height="60" as="geometry" />
        </mxCell>
        <mxCell id="77e6c97f196da883-3" value="购物车" style="swimlane;html=1;startSize=20;fillColor=#A8DADC;strokeColor=#457B9D;fontColor=#1D3557;sketch=0;snapToPoint=0;fixDash=0;metaEdit=0;backgroundOutline=0;comic=0;fillOpacity=93;" parent="77e6c97f196da883-1" vertex="1">
          <mxGeometry x="325" y="20" width="160" height="1515" as="geometry" />
        </mxCell>
        <mxCell id="LsGQIVAyzrIgrGC21WkT-4" value="记录购物车商品数量,价格,规格,总额" style="whiteSpace=wrap;html=1;rounded=0;shadow=0;fontFamily=Verdana;fontSize=8;fontColor=#1D3557;strokeColor=#457B9D;strokeWidth=1;fillColor=#A8DADC;sketch=0;snapToPoint=0;fixDash=0;metaEdit=0;backgroundOutline=0;comic=0;fillOpacity=93;" parent="77e6c97f196da883-3" vertex="1">
          <mxGeometry x="18" y="126" width="120" height="60" as="geometry" />
        </mxCell>
        <mxCell id="LsGQIVAyzrIgrGC21WkT-20" value="记录卖家信息" style="whiteSpace=wrap;html=1;rounded=0;shadow=0;fontFamily=Verdana;fontSize=8;fontColor=#1D3557;strokeColor=#457B9D;strokeWidth=1;fillColor=#A8DADC;sketch=0;snapToPoint=0;fixDash=0;metaEdit=0;backgroundOutline=0;comic=0;fillOpacity=93;" parent="77e6c97f196da883-3" vertex="1">
          <mxGeometry x="18" y="258" width="120" height="60" as="geometry" />
        </mxCell>
        <mxCell id="LsGQIVAyzrIgrGC21WkT-21" value="" style="edgeStyle=orthogonalEdgeStyle;curved=0;rounded=1;sketch=0;orthogonalLoop=1;jettySize=auto;html=1;strokeColor=#457B9D;fillColor=#A8DADC;fontColor=#1D3557;snapToPoint=0;fixDash=0;metaEdit=0;backgroundOutline=0;comic=0;fillOpacity=93;shadow=0;labelBackgroundColor=#F1FAEE;" parent="77e6c97f196da883-3" source="LsGQIVAyzrIgrGC21WkT-4" target="LsGQIVAyzrIgrGC21WkT-20" edge="1">
          <mxGeometry relative="1" as="geometry" />
        </mxCell>
        <mxCell id="LsGQIVAyzrIgrGC21WkT-24" value="记录,更新失效商品状态" style="whiteSpace=wrap;html=1;rounded=0;shadow=0;fontFamily=Verdana;fontSize=8;fontColor=#1D3557;strokeColor=#457B9D;strokeWidth=1;fillColor=#A8DADC;sketch=0;snapToPoint=0;fixDash=0;metaEdit=0;backgroundOutline=0;comic=0;fillOpacity=93;" parent="77e6c97f196da883-3" vertex="1">
          <mxGeometry x="18" y="398" width="120" height="60" as="geometry" />
        </mxCell>
        <mxCell id="LsGQIVAyzrIgrGC21WkT-25" value="" style="edgeStyle=orthogonalEdgeStyle;curved=0;rounded=1;sketch=0;orthogonalLoop=1;jettySize=auto;html=1;strokeColor=#457B9D;fillColor=#A8DADC;fontColor=#1D3557;snapToPoint=0;fixDash=0;metaEdit=0;backgroundOutline=0;comic=0;fillOpacity=93;shadow=0;labelBackgroundColor=#F1FAEE;" parent="77e6c97f196da883-3" source="LsGQIVAyzrIgrGC21WkT-20" target="LsGQIVAyzrIgrGC21WkT-24" edge="1">
          <mxGeometry relative="1" as="geometry" />
        </mxCell>
        <mxCell id="TEv4NFGnasqdaG9CAdCf-14" style="edgeStyle=orthogonalEdgeStyle;curved=0;rounded=1;sketch=0;orthogonalLoop=1;jettySize=auto;html=1;exitX=0.5;exitY=1;exitDx=0;exitDy=0;entryX=0.5;entryY=0;entryDx=0;entryDy=0;strokeColor=#457B9D;fillColor=#A8DADC;fontColor=#1D3557;" edge="1" parent="77e6c97f196da883-3" source="LsGQIVAyzrIgrGC21WkT-31" target="LsGQIVAyzrIgrGC21WkT-43">
          <mxGeometry relative="1" as="geometry" />
        </mxCell>
        <mxCell id="LsGQIVAyzrIgrGC21WkT-31" value="记录,更新售罄商品状态" style="whiteSpace=wrap;html=1;rounded=0;shadow=0;fontFamily=Verdana;fontSize=8;fontColor=#1D3557;strokeColor=#457B9D;strokeWidth=1;fillColor=#A8DADC;sketch=0;snapToPoint=0;fixDash=0;metaEdit=0;backgroundOutline=0;comic=0;fillOpacity=93;" parent="77e6c97f196da883-3" vertex="1">
          <mxGeometry x="18" y="538" width="120" height="60" as="geometry" />
        </mxCell>
        <mxCell id="LsGQIVAyzrIgrGC21WkT-32" value="" style="edgeStyle=orthogonalEdgeStyle;curved=0;rounded=1;sketch=0;orthogonalLoop=1;jettySize=auto;html=1;strokeColor=#457B9D;fillColor=#A8DADC;fontColor=#1D3557;snapToPoint=0;fixDash=0;metaEdit=0;backgroundOutline=0;comic=0;fillOpacity=93;shadow=0;labelBackgroundColor=#F1FAEE;" parent="77e6c97f196da883-3" source="LsGQIVAyzrIgrGC21WkT-24" target="LsGQIVAyzrIgrGC21WkT-31" edge="1">
          <mxGeometry relative="1" as="geometry" />
        </mxCell>
        <mxCell id="LsGQIVAyzrIgrGC21WkT-43" value="按卖家分组商品" style="whiteSpace=wrap;html=1;rounded=0;shadow=0;fontFamily=Verdana;fontSize=8;fontColor=#1D3557;strokeColor=#457B9D;strokeWidth=1;fillColor=#A8DADC;sketch=0;snapToPoint=0;fixDash=0;metaEdit=0;backgroundOutline=0;comic=0;fillOpacity=93;" parent="77e6c97f196da883-3" vertex="1">
          <mxGeometry x="18" y="678" width="120" height="60" as="geometry" />
        </mxCell>
        <mxCell id="LsGQIVAyzrIgrGC21WkT-45" value="同步获取sku,库存,失效状态,进行下单判断" style="whiteSpace=wrap;html=1;rounded=0;shadow=0;fontFamily=Verdana;fontSize=8;fontColor=#1D3557;strokeColor=#457B9D;strokeWidth=1;fillColor=#A8DADC;sketch=0;snapToPoint=0;fixDash=0;metaEdit=0;backgroundOutline=0;comic=0;fillOpacity=93;" parent="77e6c97f196da883-3" vertex="1">
          <mxGeometry x="18" y="819" width="120" height="60" as="geometry" />
        </mxCell>
        <mxCell id="LsGQIVAyzrIgrGC21WkT-46" value="" style="edgeStyle=orthogonalEdgeStyle;curved=0;rounded=1;sketch=0;orthogonalLoop=1;jettySize=auto;html=1;strokeColor=#457B9D;fillColor=#A8DADC;fontColor=#1D3557;snapToPoint=0;fixDash=0;metaEdit=0;backgroundOutline=0;comic=0;fillOpacity=93;labelBackgroundColor=#F1FAEE;" parent="77e6c97f196da883-3" source="LsGQIVAyzrIgrGC21WkT-43" target="LsGQIVAyzrIgrGC21WkT-45" edge="1">
          <mxGeometry relative="1" as="geometry" />
        </mxCell>
        <mxCell id="LsGQIVAyzrIgrGC21WkT-47" value="点击结算" style="whiteSpace=wrap;html=1;rounded=0;shadow=0;fontFamily=Verdana;fontSize=8;fontColor=#1D3557;strokeColor=#457B9D;strokeWidth=1;fillColor=#A8DADC;sketch=0;snapToPoint=0;fixDash=0;metaEdit=0;backgroundOutline=0;comic=0;fillOpacity=93;" parent="77e6c97f196da883-3" vertex="1">
          <mxGeometry x="18" y="1163" width="120" height="60" as="geometry" />
        </mxCell>
        <mxCell id="LsGQIVAyzrIgrGC21WkT-48" value="" style="edgeStyle=orthogonalEdgeStyle;curved=0;rounded=1;sketch=0;orthogonalLoop=1;jettySize=auto;html=1;strokeColor=#457B9D;fillColor=#A8DADC;fontColor=#1D3557;snapToPoint=0;fixDash=0;metaEdit=0;backgroundOutline=0;comic=0;fillOpacity=93;labelBackgroundColor=#F1FAEE;" parent="77e6c97f196da883-3" source="LsGQIVAyzrIgrGC21WkT-45" target="LsGQIVAyzrIgrGC21WkT-47" edge="1">
          <mxGeometry relative="1" as="geometry" />
        </mxCell>
        <mxCell id="77e6c97f196da883-4" value="库存" style="swimlane;html=1;startSize=20;fillColor=#A8DADC;strokeColor=#457B9D;fontColor=#1D3557;sketch=0;snapToPoint=0;fixDash=0;metaEdit=0;backgroundOutline=0;comic=0;fillOpacity=93;" parent="77e6c97f196da883-1" vertex="1">
          <mxGeometry x="485" y="20" width="178" height="1515" as="geometry" />
        </mxCell>
        <mxCell id="TEv4NFGnasqdaG9CAdCf-2" value="sku信息查询" style="whiteSpace=wrap;html=1;rounded=0;shadow=0;fontFamily=Verdana;fontSize=8;fontColor=#1D3557;strokeColor=#457B9D;strokeWidth=1;fillColor=#A8DADC;sketch=0;snapToPoint=0;fixDash=0;metaEdit=0;backgroundOutline=0;comic=0;fillOpacity=93;" vertex="1" parent="77e6c97f196da883-4">
          <mxGeometry x="29" y="38" width="120" height="60" as="geometry" />
        </mxCell>
        <mxCell id="77e6c97f196da883-5" value="商品" style="swimlane;html=1;startSize=20;fillColor=#A8DADC;strokeColor=#457B9D;fontColor=#1D3557;sketch=0;snapToPoint=0;fixDash=0;metaEdit=0;backgroundOutline=0;comic=0;fillOpacity=93;" parent="77e6c97f196da883-1" vertex="1">
          <mxGeometry x="663" y="20" width="160" height="1515" as="geometry" />
        </mxCell>
        <mxCell id="LsGQIVAyzrIgrGC21WkT-18" value="商品信息查询" style="whiteSpace=wrap;html=1;rounded=0;shadow=0;fontFamily=Verdana;fontSize=8;fontColor=#1D3557;strokeColor=#457B9D;strokeWidth=1;fillColor=#A8DADC;sketch=0;snapToPoint=0;fixDash=0;metaEdit=0;backgroundOutline=0;comic=0;fillOpacity=93;" parent="77e6c97f196da883-5" vertex="1">
          <mxGeometry x="20" y="40" width="120" height="60" as="geometry" />
        </mxCell>
        <mxCell id="77e6c97f196da883-6" value="用户" style="swimlane;html=1;startSize=20;fillColor=#A8DADC;strokeColor=#457B9D;fontColor=#1D3557;sketch=0;snapToPoint=0;fixDash=0;metaEdit=0;backgroundOutline=0;comic=0;fillOpacity=93;" parent="77e6c97f196da883-1" vertex="1">
          <mxGeometry x="823" y="20" width="160" height="1515" as="geometry" />
        </mxCell>
        <mxCell id="LsGQIVAyzrIgrGC21WkT-22" value="卖家信息查询" style="whiteSpace=wrap;html=1;rounded=0;shadow=0;fontFamily=Verdana;fontSize=8;fontColor=#1D3557;strokeColor=#457B9D;strokeWidth=1;fillColor=#A8DADC;sketch=0;snapToPoint=0;fixDash=0;metaEdit=0;backgroundOutline=0;comic=0;fillOpacity=93;" parent="77e6c97f196da883-6" vertex="1">
          <mxGeometry x="20" y="258" width="120" height="60" as="geometry" />
        </mxCell>
        <mxCell id="TEv4NFGnasqdaG9CAdCf-8" value="用户信息查询" style="whiteSpace=wrap;html=1;rounded=0;shadow=0;fontFamily=Verdana;fontSize=8;fontColor=#1D3557;strokeColor=#457B9D;strokeWidth=1;fillColor=#A8DADC;sketch=0;snapToPoint=0;fixDash=0;metaEdit=0;backgroundOutline=0;comic=0;fillOpacity=93;" vertex="1" parent="77e6c97f196da883-6">
          <mxGeometry x="20" y="46" width="120" height="60" as="geometry" />
        </mxCell>
        <mxCell id="77e6c97f196da883-7" value="营销" style="swimlane;html=1;startSize=20;fillColor=#A8DADC;strokeColor=#457B9D;fontColor=#1D3557;sketch=0;snapToPoint=0;fixDash=0;metaEdit=0;backgroundOutline=0;comic=0;fillOpacity=93;strokeOpacity=95;" parent="77e6c97f196da883-1" vertex="1">
          <mxGeometry x="983" y="20" width="160" height="1515" as="geometry" />
        </mxCell>
        <mxCell id="TEv4NFGnasqdaG9CAdCf-10" value="档期信息查询" style="whiteSpace=wrap;html=1;rounded=0;shadow=0;fontFamily=Verdana;fontSize=8;fontColor=#1D3557;strokeColor=#457B9D;strokeWidth=1;fillColor=#A8DADC;sketch=0;snapToPoint=0;fixDash=0;metaEdit=0;backgroundOutline=0;comic=0;fillOpacity=93;" vertex="1" parent="77e6c97f196da883-7">
          <mxGeometry x="18" y="50" width="120" height="60" as="geometry" />
        </mxCell>
        <mxCell id="LsGQIVAyzrIgrGC21WkT-5" value="" style="edgeStyle=orthogonalEdgeStyle;curved=0;rounded=1;sketch=0;orthogonalLoop=1;jettySize=auto;html=1;strokeColor=#457B9D;fillColor=#A8DADC;fontColor=#1D3557;snapToPoint=0;fixDash=0;metaEdit=0;backgroundOutline=0;comic=0;fillOpacity=93;shadow=0;labelBackgroundColor=#F1FAEE;" parent="77e6c97f196da883-1" source="77e6c97f196da883-13" target="LsGQIVAyzrIgrGC21WkT-4" edge="1">
          <mxGeometry relative="1" as="geometry" />
        </mxCell>
        <mxCell id="LsGQIVAyzrIgrGC21WkT-19" value="" style="edgeStyle=orthogonalEdgeStyle;curved=0;rounded=1;sketch=0;orthogonalLoop=1;jettySize=auto;html=1;strokeColor=#457B9D;fillColor=#A8DADC;fontColor=#1D3557;snapToPoint=0;fixDash=0;metaEdit=0;backgroundOutline=0;comic=0;fillOpacity=93;shadow=0;labelBackgroundColor=#F1FAEE;" parent="77e6c97f196da883-1" source="LsGQIVAyzrIgrGC21WkT-4" target="LsGQIVAyzrIgrGC21WkT-18" edge="1">
          <mxGeometry relative="1" as="geometry" />
        </mxCell>
        <mxCell id="LsGQIVAyzrIgrGC21WkT-72" value="查询" style="edgeLabel;html=1;align=center;verticalAlign=middle;resizable=0;points=[];fontColor=#1D3557;labelBackgroundColor=#F1FAEE;" parent="LsGQIVAyzrIgrGC21WkT-19" vertex="1" connectable="0">
          <mxGeometry x="0.6761" y="13" relative="1" as="geometry">
            <mxPoint as="offset" />
          </mxGeometry>
        </mxCell>
        <mxCell id="TEv4NFGnasqdaG9CAdCf-4" style="edgeStyle=orthogonalEdgeStyle;curved=0;rounded=1;sketch=0;orthogonalLoop=1;jettySize=auto;html=1;exitX=1;exitY=0.25;exitDx=0;exitDy=0;entryX=0.5;entryY=1;entryDx=0;entryDy=0;strokeColor=#457B9D;fillColor=#A8DADC;fontColor=#1D3557;" edge="1" parent="77e6c97f196da883-1" source="LsGQIVAyzrIgrGC21WkT-4" target="TEv4NFGnasqdaG9CAdCf-2">
          <mxGeometry relative="1" as="geometry" />
        </mxCell>
        <mxCell id="TEv4NFGnasqdaG9CAdCf-6" style="edgeStyle=orthogonalEdgeStyle;curved=0;rounded=1;sketch=0;orthogonalLoop=1;jettySize=auto;html=1;exitX=0.5;exitY=1;exitDx=0;exitDy=0;entryX=0;entryY=0.5;entryDx=0;entryDy=0;strokeColor=#457B9D;fillColor=#A8DADC;fontColor=#1D3557;" edge="1" parent="77e6c97f196da883-1" source="LsGQIVAyzrIgrGC21WkT-6" target="LsGQIVAyzrIgrGC21WkT-4">
          <mxGeometry relative="1" as="geometry" />
        </mxCell>
        <mxCell id="TEv4NFGnasqdaG9CAdCf-9" style="edgeStyle=orthogonalEdgeStyle;curved=0;rounded=1;sketch=0;orthogonalLoop=1;jettySize=auto;html=1;exitX=1;exitY=0.5;exitDx=0;exitDy=0;entryX=0.5;entryY=1;entryDx=0;entryDy=0;strokeColor=#457B9D;fillColor=#A8DADC;fontColor=#1D3557;" edge="1" parent="77e6c97f196da883-1" source="LsGQIVAyzrIgrGC21WkT-4" target="TEv4NFGnasqdaG9CAdCf-8">
          <mxGeometry relative="1" as="geometry" />
        </mxCell>
        <mxCell id="TEv4NFGnasqdaG9CAdCf-11" style="edgeStyle=orthogonalEdgeStyle;curved=0;rounded=1;sketch=0;orthogonalLoop=1;jettySize=auto;html=1;exitX=1;exitY=0.5;exitDx=0;exitDy=0;entryX=0.5;entryY=1;entryDx=0;entryDy=0;strokeColor=#457B9D;fillColor=#A8DADC;fontColor=#1D3557;" edge="1" parent="77e6c97f196da883-1" source="LsGQIVAyzrIgrGC21WkT-4" target="TEv4NFGnasqdaG9CAdCf-10">
          <mxGeometry relative="1" as="geometry" />
        </mxCell>
        <mxCell id="LsGQIVAyzrIgrGC21WkT-23" value="" style="edgeStyle=orthogonalEdgeStyle;curved=0;rounded=1;sketch=0;orthogonalLoop=1;jettySize=auto;html=1;strokeColor=#457B9D;fillColor=#A8DADC;fontColor=#1D3557;snapToPoint=0;fixDash=0;metaEdit=0;backgroundOutline=0;comic=0;fillOpacity=93;shadow=0;labelBackgroundColor=#F1FAEE;" parent="77e6c97f196da883-1" source="LsGQIVAyzrIgrGC21WkT-20" target="LsGQIVAyzrIgrGC21WkT-22" edge="1">
          <mxGeometry relative="1" as="geometry" />
        </mxCell>
        <mxCell id="LsGQIVAyzrIgrGC21WkT-70" value="查询" style="edgeLabel;html=1;align=center;verticalAlign=middle;resizable=0;points=[];fontColor=#1D3557;labelBackgroundColor=#F1FAEE;" parent="LsGQIVAyzrIgrGC21WkT-23" vertex="1" connectable="0">
          <mxGeometry x="-0.3632" y="1" relative="1" as="geometry">
            <mxPoint as="offset" />
          </mxGeometry>
        </mxCell>
      </root>
    </mxGraphModel>
  </diagram>
</mxfile>
